<svg width="85" height="30" viewBox="0 0 85 30" xmlns="http://www.w3.org/2000/svg">
  <path d="M9.976 25.712L4.152 3.952l-.032-.096c0-.17.107-.256.32-.256h1.728c.213 0 .33.096.352.288l4.672 18.304c.021.043.043.064.064.064.021 0 .043-.021.064-.064l4.672-18.304c.043-.192.16-.288.352-.288h1.664c.107 0 .187.032.24.096.053.064.07.15.048.256l-5.824 21.76c-.043.192-.16.288-.352.288h-1.792c-.192 0-.31-.096-.352-.288zm12.556-19.28c-.31-.31-.464-.71-.464-1.2 0-.47.155-.859.464-1.168.31-.31.71-.464 1.2-.464s.885.15 1.184.448c.299.299.448.693.448 1.184 0 .49-.15.89-.448 1.2-.299.31-.693.464-1.184.464-.49 0-.89-.155-1.2-.464zm.08 19.248V10.128c0-.213.107-.32.32-.32h1.632c.213 0 .32.107.32.32V25.68c0 .213-.107.32-.32.32h-1.632c-.213 0-.32-.107-.32-.32zm8.476-.704c-1.003-.79-1.504-1.803-1.504-3.04v-.288c0-.213.107-.32.32-.32h1.536c.213 0 .32.085.32.256v.288c0 .683.31 1.275.928 1.776.619.501 1.408.752 2.368.752.939 0 1.69-.245 2.256-.736.565-.49.848-1.11.848-1.856 0-.533-.16-.981-.48-1.344a3.47 3.47 0 0 0-1.184-.864c-.47-.213-1.12-.459-1.952-.736-1.003-.341-1.835-.683-2.496-1.024a4.896 4.896 0 0 1-1.68-1.424c-.459-.608-.688-1.381-.688-2.32 0-1.365.485-2.448 1.456-3.248.97-.8 2.245-1.2 3.824-1.2 1.621 0 2.917.416 3.888 1.248.97.832 1.456 1.899 1.456 3.2v.064c0 .213-.107.32-.32.32H38.48c-.213 0-.32-.075-.32-.224v-.224c0-.725-.293-1.328-.88-1.808s-1.36-.72-2.32-.72c-.939 0-1.685.23-2.24.688-.555.459-.832 1.05-.832 1.776 0 .747.283 1.312.848 1.696.565.384 1.456.79 2.672 1.216 1.024.341 1.877.683 2.56 1.024a5.11 5.11 0 0 1 1.744 1.424c.48.608.72 1.392.72 2.352 0 1.365-.485 2.453-1.456 3.264-.97.81-2.277 1.216-3.92 1.216-1.643 0-2.965-.395-3.968-1.184zM44.796 6.432c-.31-.31-.464-.71-.464-1.2 0-.47.155-.859.464-1.168.31-.31.71-.464 1.2-.464s.885.15 1.184.448c.299.299.448.693.448 1.184 0 .49-.15.89-.448 1.2-.299.31-.693.464-1.184.464-.49 0-.89-.155-1.2-.464zm.08 19.248V10.128c0-.213.107-.32.32-.32h1.632c.213 0 .32.107.32.32V25.68c0 .213-.107.32-.32.32h-1.632c-.213 0-.32-.107-.32-.32zm9.276-.688c-1.003-.843-1.61-1.979-1.824-3.408-.15-.981-.224-2.219-.224-3.712 0-1.472.075-2.688.224-3.648.192-1.43.795-2.565 1.808-3.408s2.299-1.264 3.856-1.264c1.515 0 2.779.421 3.792 1.264s1.616 1.968 1.808 3.376c.15 1.024.224 2.25.224 3.68 0 1.45-.075 2.688-.224 3.712-.213 1.43-.821 2.565-1.824 3.408-1.003.843-2.272 1.264-3.808 1.264s-2.805-.421-3.808-1.264zm6.128-1.568c.63-.565 1.008-1.317 1.136-2.256.085-.832.128-1.92.128-3.264 0-1.387-.043-2.475-.128-3.264-.128-.939-.507-1.69-1.136-2.256-.63-.565-1.403-.848-2.32-.848-.917 0-1.69.283-2.32.848-.63.565-1.008 1.317-1.136 2.256-.085.79-.128 1.877-.128 3.264 0 1.387.043 2.475.128 3.264.128.939.507 1.69 1.136 2.256.63.565 1.403.848 2.32.848.917 0 1.69-.283 2.32-.848zm18.076-12.416c.864.95 1.296 2.245 1.296 3.888V25.68c0 .213-.107.32-.32.32H77.7c-.213 0-.32-.107-.32-.32V15.216c0-1.11-.288-1.995-.864-2.656-.576-.661-1.355-.992-2.336-.992-1.003 0-1.808.336-2.416 1.008-.608.672-.912 1.573-.912 2.704v10.4c0 .213-.107.32-.32.32H68.9c-.213 0-.32-.107-.32-.32V10.128c0-.213.107-.32.32-.32h1.632c.213 0 .32.107.32.32v1.184c0 .043.016.075.048.096.032.021.07.01.112-.032a4.02 4.02 0 0 1 1.616-1.344c.65-.299 1.381-.448 2.192-.448 1.493 0 2.672.475 3.536 1.424z" fill="#FFF" fill-rule="evenodd"/>
</svg>
